<svg width="67" height="72" viewBox="0 0 67 72" fill="none" xmlns="http://www.w3.org/2000/svg">
<path d="M30.2348 7.22632V13.8499C29.3423 13.2539 28.0201 12.3646 26.3011 11.2102C23.4151 9.27159 20.479 10.1123 16.8041 12.5575C16.0371 11.7999 15.3423 11.0706 14.9062 10.5216C13.8318 9.16807 13.6687 7.19495 14.0906 5.56845C14.4733 4.0941 15.3642 2.79071 16.5374 1.83082C21.2287 -2.00877 30.2363 0.379993 30.2363 7.22788L30.2348 7.22632Z" fill="white"/>
<path d="M21.538 35.2013C19.7342 33.9183 17.8709 32.5961 16.1848 31.401C14.5881 30.2701 12.9554 29.18 11.3806 28.0178C9.7055 26.7834 7.95981 25.731 6.60623 24.106C5.19305 22.409 4.35236 20.3041 4.35236 18.0879C4.35236 16.6025 4.70212 15.205 5.31853 13.9848C5.31853 13.9848 6.70818 10.2377 11.2771 8.38382C11.4151 9.41116 11.8041 10.8369 12.8503 12.1544C13.2847 12.7002 13.9262 13.3872 14.6383 14.104C10.7281 17.0574 12.2339 21.5824 14.3042 23.2403C15.846 24.4731 17.4898 25.7106 19.1272 26.8995L21.5364 35.2045L21.538 35.2013Z" fill="white"/>
<path d="M30.2344 34.4187V41.3936C30.2344 41.3936 26.0764 38.4277 21.5389 35.2029L19.1297 26.8979C23.6249 30.1603 28.0762 33.0478 30.2344 34.4202V34.4187Z" fill="white"/>
<path d="M30.2349 55.5568V62.8878C30.2349 64.9801 29.4067 66.903 28.061 68.3633C27.2297 67.7515 26.0738 66.9046 24.7312 65.918C24.8974 61.873 25.0606 55.2431 24.5586 51.3392C24.1148 47.8807 19.8203 44.9446 15.678 42.2061C12.7529 40.2722 9.9014 38.4355 8.53998 36.5847C6.27826 33.5121 7.36677 30.5587 8.26863 29.0138C8.92739 29.5251 9.64888 30.0442 10.4362 30.5571C12.4188 31.8495 14.3762 33.1576 16.2113 34.4406C19.4078 36.6725 22.2389 38.826 24.2199 40.6737C25.9028 42.2421 27.4117 44.6309 28.5786 47.3679C29.6812 49.9558 30.2333 52.7445 30.2333 55.5568H30.2349Z" fill="white"/>
<path d="M24.731 65.918C19.1332 61.8071 10.2667 55.2854 7.95009 53.5319C4.49321 50.9188 6.78159 46.3248 6.78159 46.3248C10.6635 49.3127 15.1289 52.7304 18.2486 55.0564L17.5114 55.7246C17.0581 56.1355 16.8276 56.7033 16.8276 57.2727C16.8276 57.773 17.0048 58.2749 17.3656 58.6717C18.1357 59.5234 19.4626 59.5893 20.3143 58.8192L22.8959 56.4806C23.3492 56.0696 23.5798 55.5003 23.5798 54.9309C23.5798 54.4306 23.4025 53.9287 23.0418 53.5319C22.3172 52.7304 21.1001 52.6253 20.2484 53.2574C17.0472 50.8373 12.3402 47.3114 8.44259 44.3078C8.44259 44.3078 11.2925 39.8173 15.6763 42.206C19.8186 44.9446 24.1115 47.8807 24.5569 51.3392C25.0588 55.2415 24.8973 61.8729 24.7295 65.918H24.731Z" fill="white"/>
<path d="M15.6778 42.2061C11.294 39.8173 8.4441 44.3078 8.4441 44.3078C6.64822 42.9244 5.02486 41.6524 3.79833 40.6486C1.408 38.6927 -0.094585 35.6562 0.00422784 32.5475C0.0967669 29.6082 1.71228 26.7113 3.81872 24.7256C3.96929 24.9107 4.13712 25.1083 4.32063 25.3185C5.22876 26.3521 6.52902 27.6602 8.26844 29.0138C7.36814 30.5587 6.27963 33.5121 8.53978 36.5847C9.9012 38.4355 12.7527 40.2706 15.6778 42.2061Z" fill="white"/>
<path d="M28.0605 68.3632C26.8073 69.7215 25.1055 70.6814 23.2061 71.0045C17.9925 71.8907 14.9513 67.888 12.779 63.788C11.2607 60.9193 9.25621 59.2897 6.58983 57.5691C5.01823 56.5559 3.68818 55.1725 2.7471 53.5554C0.68615 50.006 1.19904 45.95 1.19904 42.0178C2.66241 43.1503 4.63239 44.6717 6.77961 46.3248C6.77961 46.3248 4.49123 50.9188 7.94811 53.5319C10.2647 55.2839 19.1328 61.8055 24.729 65.918C26.0716 66.9061 27.2276 67.7531 28.0589 68.3632H28.0605Z" fill="white"/>
<path d="M30.2345 23.5179V34.4171C28.0763 33.0447 23.625 30.1572 19.1298 26.8948C17.4923 25.7059 15.8486 24.4684 14.3068 23.2355C12.2364 21.5777 10.7322 17.0527 14.6408 14.0993C15.8611 15.3274 17.2868 16.6449 18.2232 17.4903L17.2037 18.3106C16.6924 18.7231 16.4257 19.3285 16.4257 19.9402C16.4257 20.3998 16.5763 20.8625 16.8853 21.2467C17.6037 22.1408 18.9243 22.2835 19.8199 21.5651L22.9772 19.0258C23.1074 18.9223 23.2203 18.8062 23.3175 18.6792L30.236 23.5163L30.2345 23.5179Z" fill="white"/>
<path d="M30.2346 13.8499V23.5194L23.3161 18.6823C23.6047 18.3106 23.7521 17.8557 23.7521 17.3977C23.7521 16.9397 23.6016 16.4771 23.2926 16.0928C22.5742 15.1972 21.2536 15.0545 20.358 15.7728L20.2906 15.8277C19.4734 15.0921 18.0445 13.7856 16.8023 12.5559C20.4772 10.1107 23.4149 9.26998 26.2993 11.2086C28.0184 12.3646 29.3421 13.2523 30.233 13.8483L30.2346 13.8499Z" fill="white"/>
<path d="M35.8473 7.22628V13.8499C36.7397 13.2539 38.0619 12.3646 39.781 11.2102C42.6669 9.27156 45.6031 10.1122 49.278 12.5575C50.045 11.7999 50.7398 11.0706 51.1758 10.5216C52.2502 9.16804 52.4133 7.19492 51.9914 5.56842C51.6087 4.09407 50.7178 2.79068 49.5446 1.83079C44.8534 -2.0088 35.8457 0.379963 35.8457 7.22785L35.8473 7.22628Z" fill="white"/>
<path d="M44.543 35.2013C46.3467 33.9183 48.21 32.5961 49.8961 31.401C51.4928 30.2701 53.1256 29.18 54.7003 28.0178C56.3754 26.7834 58.1211 25.731 59.4747 24.106C60.8879 22.409 61.7286 20.3041 61.7286 18.0879C61.7286 16.6025 61.3788 15.205 60.7624 13.9848C60.7624 13.9848 59.3727 10.2377 54.8038 8.38382C54.6658 9.41116 54.2768 10.8369 53.2307 12.1544C52.7962 12.7002 52.1547 13.3872 51.4426 14.104C55.3528 17.0574 53.8471 21.5824 51.7767 23.2403C50.2349 24.4731 48.5912 25.7106 46.9537 26.8995L44.5445 35.2045L44.543 35.2013Z" fill="white"/>
<path d="M35.8468 34.4187V41.3936C35.8468 41.3936 40.0048 38.4277 44.5423 35.2029L46.9515 26.8979C42.4563 30.1603 38.005 33.0478 35.8468 34.4202V34.4187Z" fill="white"/>
<path d="M35.8468 55.5568C35.8468 55.5568 35.8468 62.8815 35.8468 62.8878C35.8468 64.9801 36.6749 66.903 38.0207 68.3633C38.852 67.7515 40.0079 66.9046 41.3505 65.918C41.1843 61.873 41.0211 55.2431 41.5231 51.3392C41.9669 47.8807 46.2614 44.9446 50.4037 42.2061C53.3288 40.2722 56.1803 38.4355 57.5417 36.5847C59.8034 33.5121 58.7149 30.5587 57.8131 29.0138C57.1543 29.5251 56.4328 30.0442 55.6455 30.5571C53.6629 31.8495 51.7055 33.1576 49.8704 34.4406C46.6739 36.6725 43.8428 38.826 41.8618 40.6737C40.1789 42.2421 38.67 44.6309 37.5031 47.3679C36.4005 49.9558 35.8484 52.7445 35.8484 55.5568H35.8468Z" fill="white"/>
<path d="M41.3507 65.918C46.9485 61.8071 55.815 55.2854 58.1316 53.5319C61.5885 50.9188 59.3001 46.3248 59.3001 46.3248C55.4182 49.3127 50.9528 52.7304 47.8331 55.0564L48.5703 55.7246C49.0236 56.1355 49.2541 56.7033 49.2541 57.2727C49.2541 57.773 49.0769 58.2749 48.7161 58.6717C47.946 59.5234 46.6191 59.5893 45.7674 58.8192L43.1857 56.4806C42.7325 56.0696 42.5019 55.5003 42.5019 54.9309C42.5019 54.4306 42.6791 53.9287 43.0399 53.5319C43.7645 52.7304 44.9816 52.6253 45.8333 53.2574C49.0345 50.8373 53.7415 47.3114 57.6391 44.3078C57.6391 44.3078 54.7892 39.8173 50.4054 42.206C46.2631 44.9446 41.9702 47.8807 41.5247 51.3392C41.0228 55.2415 41.1844 61.8729 41.3522 65.918H41.3507Z" fill="white"/>
<path d="M50.4034 42.2061C54.7872 39.8173 57.6371 44.3078 57.6371 44.3078C59.433 42.9245 61.0564 41.6524 62.2829 40.6486C64.6732 38.6912 66.1758 35.6546 66.077 32.546C65.9845 29.6067 64.3689 26.7097 62.2625 24.7241C62.1119 24.9091 61.9441 25.1068 61.7606 25.3169C60.8525 26.3506 59.5522 27.6586 57.8128 29.0122C58.7131 30.5572 59.8016 33.5106 57.5414 36.5832C56.18 38.434 53.3286 40.2691 50.4034 42.2045V42.2061Z" fill="white"/>
<path d="M38.0207 68.3632C39.2739 69.7215 40.9757 70.6814 42.8751 71.0045C48.0886 71.8907 51.1299 67.888 53.3022 63.788C54.8204 60.9193 56.8249 59.2897 59.4913 57.5691C61.0629 56.5559 62.393 55.1725 63.334 53.5554C65.395 50.006 64.8821 45.95 64.8821 42.0178C63.4187 43.1503 61.4488 44.6717 59.3015 46.3248C59.3015 46.3248 61.5899 50.9188 58.133 53.5319C55.8164 55.2839 46.9484 61.8055 41.3521 65.918C40.0095 66.9061 38.8535 67.7531 38.0223 68.3632H38.0207Z" fill="white"/>
<path d="M35.8473 23.5179V34.4171C38.0055 33.0447 42.4568 30.1572 46.952 26.8948C48.5894 25.7059 50.2332 24.4684 51.775 23.2355C53.8453 21.5777 55.3495 17.0527 51.4409 14.0993C50.2206 15.3274 48.7949 16.6449 47.8585 17.4903L48.878 18.3106C49.3893 18.7231 49.656 19.3285 49.656 19.9402C49.656 20.3998 49.5054 20.8625 49.1964 21.2467C48.4781 22.1408 47.1574 22.2835 46.2618 21.5651L43.1045 19.0258C42.9743 18.9223 42.8614 18.8062 42.7642 18.6792L35.8457 23.5163L35.8473 23.5179Z" fill="white"/>
<path d="M35.8468 13.8499V23.5194L42.7653 18.6823C42.4767 18.3106 42.3292 17.8557 42.3292 17.3977C42.3292 16.9382 42.4798 16.4771 42.7888 16.0928C43.5072 15.1972 44.8278 15.0545 45.7234 15.7728L45.7908 15.8277C46.608 15.0921 48.0369 13.7856 49.2791 12.5559C45.6042 10.1107 42.6665 9.26998 39.7821 11.2086C38.063 12.3646 36.7393 13.2523 35.8484 13.8483L35.8468 13.8499Z" fill="white"/>
</svg>
