<svg width="40" height="43" viewBox="0 0 40 43" fill="none" xmlns="http://www.w3.org/2000/svg">
<g clip-path="url(#clip0_2419_2)">
<path d="M18.2841 4.36923V8.37305C17.7456 8.01202 16.9454 7.47587 15.9051 6.77758C14.1597 5.60583 12.3841 6.11387 10.1607 7.59261C9.69574 7.13429 9.27616 6.69326 9.0123 6.36249C8.36347 5.5453 8.26398 4.35193 8.51919 3.36827C8.7506 2.47758 9.28914 1.68849 9.99853 1.1091C12.8383 -1.21493 18.2841 0.229209 18.2841 4.36923Z" fill="url(#paint0_linear_2419_2)"/>
<path d="M13.0264 21.2795C11.9364 20.5034 10.8096 19.7035 9.78876 18.9814C8.822 18.2983 7.83577 17.6389 6.88414 16.9363C5.87196 16.1904 4.81652 15.5527 3.99683 14.5712C3.14253 13.5443 2.63428 12.2731 2.63428 10.9327C2.63428 10.0355 2.84623 9.19023 3.21823 8.45302C3.21823 8.45302 4.05955 6.18736 6.82142 5.0675C6.90577 5.68797 7.13935 6.55056 7.77305 7.34614C8.03475 7.67691 8.42405 8.09199 8.85444 8.52437C6.49052 10.3101 7.39889 13.0449 8.65114 14.048C9.5833 14.7938 10.5782 15.5419 11.5687 16.2596L13.0264 21.2795Z" fill="url(#paint1_linear_2419_2)"/>
<path d="M18.2842 20.806V25.0217C18.2842 25.0217 15.771 23.2295 13.0264 21.2794L11.5687 16.2595C14.2873 18.2312 16.98 19.978 18.2842 20.806Z" fill="url(#paint2_linear_2419_2)"/>
<path d="M18.2841 33.5872C18.2841 33.5872 18.2841 38.0147 18.2841 38.0191C18.2841 39.2838 17.7824 40.4469 16.9691 41.3289C16.4674 40.9592 15.7666 40.4469 14.9556 39.8502C15.0572 37.4051 15.1546 33.3969 14.8518 31.0383C14.5836 28.9478 11.9861 27.1728 9.48159 25.5168C7.71244 24.3473 5.9887 23.2382 5.16468 22.1183C3.7978 20.2613 4.45529 18.4756 5.00031 17.5416C5.39826 17.8508 5.83514 18.1643 6.31095 18.4756C7.50914 19.256 8.69434 20.0473 9.80385 20.8234C11.7374 22.1724 13.4481 23.4739 14.6485 24.5916C15.665 25.5406 16.5798 26.9848 17.2849 28.6386C17.951 30.1995 18.2841 31.8858 18.2841 33.5872Z" fill="url(#paint3_linear_2419_2)"/>
<path d="M14.9557 39.8502C11.5709 37.364 6.20721 33.4229 4.80789 32.3635C2.71647 30.7832 4.10065 28.0073 4.10065 28.0073C6.44727 29.8125 9.14859 31.8793 11.0367 33.2867L10.5912 33.6909C10.3165 33.9396 10.1781 34.2833 10.1781 34.627C10.1781 34.9297 10.2862 35.2324 10.5025 35.4723C10.9675 35.9869 11.7699 36.028 12.2868 35.561L13.8483 34.1471C14.123 33.8985 14.2614 33.5547 14.2614 33.211C14.2614 32.9083 14.1533 32.6057 13.937 32.3657C13.5001 31.8814 12.7626 31.8188 12.2479 32.1992C10.3122 30.7356 7.46595 28.604 5.10851 26.7902C5.10851 26.7902 6.83225 24.0749 9.48382 25.519C11.9883 27.175 14.5858 28.9499 14.854 31.0405C15.1546 33.3969 15.0573 37.4051 14.9557 39.8502Z" fill="url(#paint4_linear_2419_2)"/>
<path d="M9.48164 25.5146C6.83007 24.0704 5.10634 26.7858 5.10634 26.7858C4.02062 25.9491 3.03872 25.1795 2.29688 24.5742C0.852143 23.3916 -0.056226 21.5562 0.00216911 19.6775C0.0584015 17.9004 1.03598 16.1493 2.30986 14.9473C2.40069 15.0597 2.50235 15.1786 2.61265 15.3061C3.16199 15.9309 3.94925 16.7222 5.00036 17.5394C4.45534 18.4733 3.79785 20.259 5.16473 22.1161C5.98875 23.236 7.71249 24.345 9.48164 25.5146Z" fill="url(#paint5_linear_2419_2)"/>
<path d="M16.9691 41.3289C16.21 42.1504 15.1827 42.7298 14.0342 42.9265C10.8809 43.4627 9.04254 41.0435 7.72757 38.5638C6.80838 36.83 5.59722 35.8442 3.98379 34.8043C3.03433 34.1925 2.22761 33.3558 1.66096 32.3765C0.415198 30.2297 0.724476 27.7781 0.724476 25.4022C1.60905 26.0875 2.80075 27.0063 4.09842 28.0051C4.09842 28.0051 2.71424 30.7832 4.80565 32.3613C6.20713 33.4207 11.5687 37.364 14.9534 39.848C15.7688 40.4468 16.4674 40.9592 16.9691 41.3289Z" fill="url(#paint6_linear_2419_2)"/>
<path d="M18.2842 14.2187V20.8082C16.9779 19.978 14.2874 18.2334 11.5688 16.2617C10.5782 15.544 9.58332 14.796 8.65116 14.0501C7.39891 13.047 6.48838 10.3122 8.85446 8.52649C9.59197 9.27018 10.4549 10.0658 11.0216 10.576L10.4052 11.071C10.0959 11.3197 9.93585 11.6872 9.93585 12.0569C9.93585 12.3336 10.0267 12.6146 10.2127 12.8459C10.6474 13.3864 11.4455 13.4729 11.9883 13.0384L13.8981 11.5034C13.9759 11.4407 14.0451 11.3694 14.1035 11.2937L18.2842 14.2187Z" fill="url(#paint7_linear_2419_2)"/>
<path d="M18.2842 8.37295V14.2187L14.1014 11.2937C14.2766 11.0688 14.3652 10.7943 14.3652 10.5175C14.3652 10.2408 14.2744 9.96194 14.0884 9.72846C13.6537 9.18798 12.8556 9.10151 12.3128 9.53605L12.2717 9.56848C11.7786 9.12313 10.9134 8.33404 10.163 7.59035C12.3863 6.11161 14.1619 5.60357 15.9073 6.77531C16.9455 7.47577 17.7457 8.01191 18.2842 8.37295Z" fill="url(#paint8_linear_2419_2)"/>
<path d="M21.6797 4.36923V8.37305C22.2182 8.01202 23.0184 7.47587 24.0587 6.77758C25.8041 5.60583 27.5798 6.11387 29.8031 7.59261C30.2681 7.13429 30.6877 6.69326 30.9515 6.36249C31.6004 5.5453 31.6999 4.35193 31.4447 3.36827C31.2132 2.47758 30.6747 1.68849 29.9653 1.1091C27.1256 -1.21493 21.6797 0.229209 21.6797 4.36923Z" fill="url(#paint9_linear_2419_2)"/>
<path d="M26.9375 21.2795C28.0275 20.5034 29.1544 19.7035 30.1752 18.9814C31.1419 18.2983 32.1282 17.6389 33.0798 16.9363C34.092 16.1904 35.1474 15.5527 35.9671 14.5712C36.8214 13.5443 37.3297 12.2731 37.3297 10.9327C37.3297 10.0355 37.1177 9.19023 36.7457 8.45302C36.7457 8.45302 35.9044 6.18736 33.1425 5.0675C33.0582 5.68797 32.8246 6.55056 32.1909 7.34614C31.9292 7.67691 31.5399 8.09199 31.1095 8.52437C33.4734 10.3101 32.5651 13.0449 31.3128 14.048C30.3806 14.7938 29.3858 15.5419 28.3952 16.2596L26.9375 21.2795Z" fill="url(#paint10_linear_2419_2)"/>
<path d="M21.6797 20.806V25.0217C21.6797 25.0217 24.1928 23.2295 26.9374 21.2794L28.3951 16.2595C25.6765 18.2312 22.9838 19.978 21.6797 20.806Z" fill="url(#paint11_linear_2419_2)"/>
<path d="M21.6797 14.2187V20.8082C22.986 19.978 25.6765 18.2334 28.3951 16.2617C29.3857 15.544 30.3806 14.796 31.3127 14.0501C32.565 13.047 33.4755 10.3122 31.1094 8.52649C30.3719 9.27018 29.509 10.0658 28.9445 10.576L29.5609 11.071C29.8701 11.3197 30.0302 11.6872 30.0302 12.0569C30.0302 12.3336 29.9394 12.6146 29.7534 12.8459C29.3186 13.3864 28.5206 13.4729 27.9777 13.0384L26.068 11.5034C25.9901 11.4407 25.9209 11.3694 25.8625 11.2937L21.6797 14.2187Z" fill="url(#paint12_linear_2419_2)"/>
<path d="M21.6797 8.37299V14.2187L25.8625 11.2959C25.6873 11.071 25.5987 10.7965 25.5987 10.5197C25.5987 10.243 25.6895 9.96414 25.8755 9.73065C26.3102 9.19018 27.1083 9.1037 27.6511 9.53824L27.6922 9.57067C28.1853 9.12532 29.0504 8.33623 29.8009 7.59254C27.5776 6.11381 25.802 5.60577 24.0566 6.77751C23.0185 7.4758 22.2182 8.01195 21.6797 8.37299Z" fill="url(#paint13_linear_2419_2)"/>
<path d="M21.6797 33.5872C21.6797 33.5872 21.6797 38.0147 21.6797 38.0191C21.6797 39.2838 22.1815 40.4469 22.9947 41.3289C23.4964 40.9592 24.1972 40.4469 25.0082 39.8502C24.9066 37.4051 24.8092 33.3969 25.112 31.0383C25.3802 28.9478 27.9777 27.1728 30.4822 25.5168C32.2514 24.3473 33.9751 23.2382 34.7991 22.1183C36.166 20.2613 35.5085 18.4756 34.9635 17.5416C34.5655 17.8508 34.1287 18.1643 33.6529 18.4756C32.4547 19.256 31.2695 20.0473 30.16 20.8234C28.2264 22.1724 26.5157 23.4739 25.3153 24.5916C24.2988 25.5406 23.384 26.9848 22.6789 28.6386C22.0128 30.1995 21.6797 31.8858 21.6797 33.5872Z" fill="url(#paint14_linear_2419_2)"/>
<path d="M25.0082 39.8502C28.393 37.364 33.7567 33.4229 35.156 32.3635C37.2474 30.7832 35.8632 28.0073 35.8632 28.0073C33.5166 29.8125 30.8153 31.8793 28.9272 33.2867L29.3727 33.6909C29.6474 33.9396 29.7858 34.2833 29.7858 34.627C29.7858 34.9297 29.6777 35.2324 29.4614 35.4723C28.9964 35.9869 28.194 36.028 27.6771 35.561L26.1156 34.1471C25.8409 33.8985 25.7025 33.5547 25.7025 33.211C25.7025 32.9083 25.8106 32.6057 26.0269 32.3657C26.4638 31.8814 27.2013 31.8188 27.716 32.1992C29.6517 30.7356 32.498 28.604 34.8554 26.7902C34.8554 26.7902 33.1316 24.0749 30.4801 25.519C27.9756 27.175 25.3781 28.9499 25.1099 31.0405C24.8093 33.3969 24.9066 37.4051 25.0082 39.8502Z" fill="url(#paint15_linear_2419_2)"/>
<path d="M30.4823 25.5146C33.1339 24.0704 34.8576 26.7858 34.8576 26.7858C35.9433 25.9491 36.9252 25.1795 37.6671 24.5742C39.114 23.3916 40.0202 21.5562 39.9618 19.6753C39.9055 17.8982 38.928 16.1471 37.6562 14.9473C37.5654 15.0597 37.4638 15.1786 37.3535 15.3061C36.8041 15.9309 36.0169 16.7222 34.9657 17.5394C35.5108 18.4733 36.1683 20.259 34.8014 22.1161C33.9774 23.236 32.2515 24.345 30.4823 25.5146Z" fill="url(#paint16_linear_2419_2)"/>
<path d="M22.9948 41.3289C23.7539 42.1504 24.7812 42.7298 25.9296 42.9265C29.083 43.4627 30.9213 41.0435 32.2363 38.5638C33.1555 36.83 34.3667 35.8442 35.9801 34.8043C36.9296 34.1925 37.7363 33.3558 38.3029 32.3765C39.5487 30.2297 39.2394 27.7781 39.2394 25.4022C38.3548 26.0875 37.1631 27.0063 35.8655 28.0051C35.8655 28.0051 37.2497 30.7832 35.1582 32.3613C33.7568 33.4207 28.3952 37.364 25.0105 39.848C24.1951 40.4468 23.4965 40.9592 22.9948 41.3289Z" fill="url(#paint17_linear_2419_2)"/>
</g>
<defs>
<linearGradient id="paint0_linear_2419_2" x1="12.6057" y1="2.68797" x2="27.3562" y2="35.3361" gradientUnits="userSpaceOnUse">
<stop stop-color="#06E4FB"/>
<stop offset="0.3436" stop-color="#1287D7"/>
<stop offset="0.7346" stop-color="#114ACB"/>
<stop offset="1" stop-color="#1123A9"/>
</linearGradient>
<linearGradient id="paint1_linear_2419_2" x1="6.12088" y1="10.5791" x2="29.8959" y2="35.5876" gradientUnits="userSpaceOnUse">
<stop stop-color="#06E4FB"/>
<stop offset="0.3436" stop-color="#1287D7"/>
<stop offset="0.7346" stop-color="#114ACB"/>
<stop offset="1" stop-color="#1123A9"/>
</linearGradient>
<linearGradient id="paint2_linear_2419_2" x1="5.29914" y1="9.01635" x2="23.7221" y2="30.4294" gradientUnits="userSpaceOnUse">
<stop stop-color="#06E4FB"/>
<stop offset="0.3436" stop-color="#1287D7"/>
<stop offset="0.7346" stop-color="#114ACB"/>
<stop offset="1" stop-color="#1123A9"/>
</linearGradient>
<linearGradient id="paint3_linear_2419_2" x1="0.295758" y1="21.5433" x2="21.6276" y2="37.0707" gradientUnits="userSpaceOnUse">
<stop stop-color="#06E4FB"/>
<stop offset="0.3436" stop-color="#1287D7"/>
<stop offset="0.7346" stop-color="#114ACB"/>
<stop offset="1" stop-color="#1123A9"/>
</linearGradient>
<linearGradient id="paint4_linear_2419_2" x1="-2.03375" y1="14.9883" x2="14.6808" y2="38.2352" gradientUnits="userSpaceOnUse">
<stop stop-color="#06E4FB"/>
<stop offset="0.3436" stop-color="#1287D7"/>
<stop offset="0.7346" stop-color="#114ACB"/>
<stop offset="1" stop-color="#1123A9"/>
</linearGradient>
<linearGradient id="paint5_linear_2419_2" x1="-3.61249" y1="14.6027" x2="18.8137" y2="34.1827" gradientUnits="userSpaceOnUse">
<stop stop-color="#06E4FB"/>
<stop offset="0.3436" stop-color="#1287D7"/>
<stop offset="0.7346" stop-color="#114ACB"/>
<stop offset="1" stop-color="#1123A9"/>
</linearGradient>
<linearGradient id="paint6_linear_2419_2" x1="-9.16519" y1="20.0349" x2="20.5998" y2="47.2628" gradientUnits="userSpaceOnUse">
<stop stop-color="#06E4FB"/>
<stop offset="0.3436" stop-color="#1287D7"/>
<stop offset="0.7346" stop-color="#114ACB"/>
<stop offset="1" stop-color="#1123A9"/>
</linearGradient>
<linearGradient id="paint7_linear_2419_2" x1="-12.9073" y1="-9.64602" x2="32.3521" y2="31.1961" gradientUnits="userSpaceOnUse">
<stop stop-color="#06E4FB"/>
<stop offset="0.3436" stop-color="#1287D7"/>
<stop offset="0.7346" stop-color="#114ACB"/>
<stop offset="1" stop-color="#1123A9"/>
</linearGradient>
<linearGradient id="paint8_linear_2419_2" x1="7.58646" y1="1.28333" x2="31.2854" y2="25.2215" gradientUnits="userSpaceOnUse">
<stop stop-color="#06E4FB"/>
<stop offset="0.3436" stop-color="#1287D7"/>
<stop offset="0.7346" stop-color="#114ACB"/>
<stop offset="1" stop-color="#1123A9"/>
</linearGradient>
<linearGradient id="paint9_linear_2419_2" x1="54.5503" y1="-14.4305" x2="-40.5665" y2="49.3639" gradientUnits="userSpaceOnUse">
<stop stop-color="#06E4FB"/>
<stop offset="0.3436" stop-color="#1287D7"/>
<stop offset="0.7346" stop-color="#114ACB"/>
<stop offset="1" stop-color="#1123A9"/>
</linearGradient>
<linearGradient id="paint10_linear_2419_2" x1="33.1209" y1="11.0139" x2="10.7953" y2="27.6375" gradientUnits="userSpaceOnUse">
<stop stop-color="#466CF3"/>
<stop offset="1" stop-color="#3337F0"/>
</linearGradient>
<linearGradient id="paint11_linear_2419_2" x1="42.1387" y1="8.07359" x2="21.5459" y2="23.0656" gradientUnits="userSpaceOnUse">
<stop stop-color="#466CF3"/>
<stop offset="1" stop-color="#3337F0"/>
</linearGradient>
<linearGradient id="paint12_linear_2419_2" x1="65.8569" y1="-13.2374" x2="21.2811" y2="17.8944" gradientUnits="userSpaceOnUse">
<stop stop-color="#06E4FB"/>
<stop offset="0.3436" stop-color="#1287D7"/>
<stop offset="0.3976" stop-color="#127ED5"/>
<stop offset="0.7346" stop-color="#114ACB"/>
<stop offset="1" stop-color="#1123A9"/>
</linearGradient>
<linearGradient id="paint13_linear_2419_2" x1="44.2422" y1="-10.8129" x2="6.6298" y2="27.4269" gradientUnits="userSpaceOnUse">
<stop stop-color="#06E4FB"/>
<stop offset="0.3436" stop-color="#1287D7"/>
<stop offset="0.7346" stop-color="#114ACB"/>
<stop offset="1" stop-color="#1123A9"/>
</linearGradient>
<linearGradient id="paint14_linear_2419_2" x1="38.6496" y1="22.2248" x2="19.9939" y2="35.891" gradientUnits="userSpaceOnUse">
<stop offset="0.0032489" stop-color="#1300BF"/>
<stop offset="0.4983" stop-color="#07008E"/>
<stop offset="1" stop-color="#060035"/>
</linearGradient>
<linearGradient id="paint15_linear_2419_2" x1="42.8618" y1="20.932" x2="26.1435" y2="34.0878" gradientUnits="userSpaceOnUse">
<stop offset="0.0032489" stop-color="#1300BF"/>
<stop offset="0.4574" stop-color="#07008E"/>
<stop offset="1" stop-color="#060035"/>
</linearGradient>
<linearGradient id="paint16_linear_2419_2" x1="60.7207" y1="3.81083" x2="24.3261" y2="29.2058" gradientUnits="userSpaceOnUse">
<stop offset="0.0032489" stop-color="#1300BF"/>
<stop offset="0.5532" stop-color="#07008E"/>
<stop offset="0.917" stop-color="#060035"/>
</linearGradient>
<linearGradient id="paint17_linear_2419_2" x1="60.824" y1="13.7004" x2="22.4935" y2="42.7661" gradientUnits="userSpaceOnUse">
<stop offset="0.0032489" stop-color="#1300BF"/>
<stop offset="0.4983" stop-color="#07008E"/>
<stop offset="1" stop-color="#060035"/>
</linearGradient>
<clipPath id="clip0_2419_2">
<rect width="40" height="43" fill="white"/>
</clipPath>
</defs>
</svg>
