<svg width="147" height="43" viewBox="0 0 147 43" fill="none" xmlns="http://www.w3.org/2000/svg">
<g clip-path="url(#clip0_28_123)">
<path d="M56.8336 24.7817C54.0609 24.7817 52.2809 22.6285 52.2809 20.0818C52.2809 17.5373 54.0609 15.384 56.8336 15.384C58.6309 15.384 60.0367 16.2639 60.8045 17.5373L62.472 16.4693C61.3668 14.5971 59.3446 13.4167 56.8336 13.4167C52.8627 13.4167 50.1268 16.2617 50.1268 20.0818C50.1268 23.9019 52.8606 26.7664 56.8336 26.7664C59.3424 26.7664 61.3668 25.586 62.472 23.7138L60.8045 22.6458C60.0367 23.9213 58.6309 24.7817 56.8336 24.7817Z" fill="#1E1E1E"/>
<path d="M67.5848 24.5764V21.0763H74.1207V19.1652H65.5237V26.5048H75.546V24.5764H67.5848ZM65.5237 13.7345V15.6824H67.5848V15.6651H75.546V13.7367H65.5237V13.7345Z" fill="#1E1E1E"/>
<path d="M87.119 22.1421C88.9163 21.4676 89.8723 19.9132 89.8723 18.1166C89.8723 15.7018 88.168 13.7367 84.9844 13.7367H78.8961V26.5048H80.9746V22.4988H84.926L87.9971 26.5048H90.4692L87.119 22.1421ZM85.0968 20.5509H80.9767V15.6824H85.0968C86.6887 15.6824 87.7765 16.7698 87.7765 18.1166C87.7765 19.4657 86.6887 20.5509 85.0968 20.5509Z" fill="#1E1E1E"/>
<path d="M93.3003 13.7345V15.6824H95.3614V15.6651H103.323V13.7367H93.3003V13.7345ZM95.3614 24.5764V21.0763H101.897V19.1652H93.3003V26.5048H103.323V24.5764H95.3614Z" fill="#1E1E1E"/>
<path d="M115.646 19.7835C116.17 19.4462 117.164 18.6031 117.164 17.2C117.164 15.2889 115.891 13.7367 112.932 13.7367H106.675V15.6456H113.025C114.429 15.6456 115.067 16.3958 115.067 17.3124C115.067 18.2312 114.374 18.9425 113.025 18.9425H106.675V26.5069H113.455C116.34 26.5069 117.688 24.879 117.688 22.8555C117.688 21.1325 116.338 20.1013 115.646 19.7835ZM113.323 24.5937H108.753V20.832H113.287C114.805 20.832 115.59 21.6751 115.59 22.7042C115.59 23.7527 114.783 24.5937 113.323 24.5937Z" fill="#1E1E1E"/>
<path d="M121.695 13.7345V26.5026H123.718V13.7345H121.695Z" fill="#1E1E1E"/>
<path d="M128.383 13.7345V26.5026H130.405V13.7345H128.383Z" fill="#1E1E1E"/>
<path d="M141.587 13.7345H139.337L133.924 26.5026H136.059L137.06 24.1224L137.296 23.5624H137.298L138.412 20.9487L138.464 20.8255L140.46 16.1104L142.839 21.727H139.958L139.182 23.5624H143.624L144.861 26.5005H146.996L141.587 13.7345Z" fill="#1E1E1E"/>
<path d="M18.2842 4.36918V8.373C17.7456 8.01197 16.9454 7.47582 15.9051 6.77753C14.1597 5.60578 12.3841 6.11383 10.1608 7.59256C9.69576 7.13424 9.27618 6.69321 9.01232 6.36244C8.36348 5.54525 8.26399 4.35189 8.5192 3.36823C8.75062 2.47753 9.28915 1.68844 9.99854 1.10905C12.8383 -1.21498 18.2842 0.22916 18.2842 4.36918Z" fill="url(#paint0_linear_28_123)"/>
<path d="M13.0264 21.2795C11.9364 20.5034 10.8096 19.7035 9.78875 18.9814C8.82198 18.2982 7.83575 17.6389 6.88413 16.9362C5.87195 16.1904 4.81651 15.5526 3.99681 14.5711C3.14252 13.5442 2.63426 12.2731 2.63426 10.9327C2.63426 10.0355 2.84621 9.1902 3.21821 8.45299C3.21821 8.45299 4.05954 6.18733 6.82141 5.06747C6.90576 5.68793 7.13934 6.55053 7.77303 7.3461C8.03473 7.67687 8.42403 8.09195 8.85442 8.52433C6.4905 10.3101 7.39887 13.0448 8.65112 14.048C9.58328 14.7938 10.5782 15.5418 11.5687 16.2596L13.0264 21.2795Z" fill="url(#paint1_linear_28_123)"/>
<path d="M18.2842 20.806V25.0217C18.2842 25.0217 15.771 23.2295 13.0264 21.2795L11.5687 16.2596C14.2873 18.2312 16.98 19.978 18.2842 20.806Z" fill="url(#paint2_linear_28_123)"/>
<path d="M18.2842 33.5871C18.2842 33.5871 18.2842 38.0147 18.2842 38.019C18.2842 39.2837 17.7824 40.4468 16.9692 41.3289C16.4674 40.9592 15.7667 40.4468 14.9556 39.8501C15.0573 37.405 15.1546 33.3969 14.8518 31.0383C14.5836 28.9477 11.9861 27.1728 9.48164 25.5168C7.71248 24.3472 5.98874 23.2382 5.16472 22.1183C3.79785 20.2612 4.45533 18.4755 5.00035 17.5416C5.39831 17.8507 5.83519 18.1642 6.311 18.4755C7.50918 19.256 8.69439 20.0472 9.80389 20.8233C11.7374 22.1723 13.4482 23.4738 14.6485 24.5915C15.665 25.5406 16.5799 26.9847 17.285 28.6386C17.9511 30.1995 18.2842 31.8857 18.2842 33.5871Z" fill="url(#paint3_linear_28_123)"/>
<path d="M14.9556 39.8501C11.5709 37.364 6.20719 33.4228 4.80787 32.3635C2.71646 30.7832 4.10064 28.0073 4.10064 28.0073C6.44726 29.8125 9.14857 31.8792 11.0367 33.2866L10.5912 33.6909C10.3165 33.9395 10.1781 34.2833 10.1781 34.627C10.1781 34.9297 10.2862 35.2323 10.5025 35.4723C10.9675 35.9868 11.7699 36.0279 12.2868 35.5609L13.8483 34.1471C14.123 33.8984 14.2614 33.5547 14.2614 33.211C14.2614 32.9083 14.1533 32.6056 13.937 32.3657C13.5001 31.8814 12.7626 31.8187 12.2478 32.1992C10.3122 30.7356 7.46593 28.604 5.1085 26.7901C5.1085 26.7901 6.83223 24.0748 9.48381 25.519C11.9883 27.175 14.5858 28.9499 14.854 31.0404C15.1546 33.3969 15.0573 37.405 14.9556 39.8501Z" fill="url(#paint4_linear_28_123)"/>
<path d="M9.48163 25.5146C6.83006 24.0705 5.10632 26.7858 5.10632 26.7858C4.0206 25.9492 3.0387 25.1795 2.29687 24.5742C0.852127 23.3917 -0.0562413 21.5562 0.00215385 19.6775C0.0583862 17.9004 1.03596 16.1493 2.30984 14.9473C2.40068 15.0597 2.50233 15.1786 2.61263 15.3062C3.16198 15.931 3.94923 16.7222 5.00034 17.5394C4.45532 18.4734 3.79784 20.2591 5.16472 22.1161C5.98874 23.236 7.71247 24.345 9.48163 25.5146Z" fill="url(#paint5_linear_28_123)"/>
<path d="M16.9692 41.3289C16.2101 42.1504 15.1827 42.7298 14.0343 42.9265C10.881 43.4626 9.0426 41.0435 7.72763 38.5638C6.80844 36.83 5.59729 35.8441 3.98385 34.8043C3.03439 34.1925 2.22767 33.3558 1.66102 32.3765C0.415259 30.2297 0.724537 27.7781 0.724537 25.4022C1.60911 26.0875 2.80081 27.0063 4.09848 28.0051C4.09848 28.0051 2.7143 30.7832 4.80571 32.3613C6.20719 33.4207 11.5687 37.364 14.9535 39.848C15.7689 40.4468 16.4674 40.9592 16.9692 41.3289Z" fill="url(#paint6_linear_28_123)"/>
<path d="M18.2842 14.2188V20.8082C16.9778 19.978 14.2873 18.2334 11.5687 16.2617C10.5782 15.544 9.58329 14.796 8.65113 14.0501C7.39888 13.047 6.48835 10.3122 8.85443 8.5265C9.59194 9.27019 10.4549 10.0658 11.0215 10.576L10.4051 11.071C10.0959 11.3197 9.93582 11.6872 9.93582 12.0569C9.93582 12.3336 10.0267 12.6146 10.2127 12.846C10.6474 13.3864 11.4454 13.4729 11.9883 13.0384L13.898 11.5034C13.9759 11.4407 14.0451 11.3694 14.1035 11.2937L18.2842 14.2188Z" fill="url(#paint7_linear_28_123)"/>
<path d="M18.2842 8.373V14.2188L14.1013 11.2937C14.2765 11.0689 14.3652 10.7943 14.3652 10.5176C14.3652 10.2409 14.2744 9.96199 14.0884 9.72851C13.6536 9.18803 12.8556 9.10156 12.3127 9.5361L12.2716 9.56852C11.7785 9.12318 10.9134 8.33409 10.1629 7.5904C12.3863 6.11166 14.1619 5.60362 15.9073 6.77536C16.9454 7.47582 17.7456 8.01196 18.2842 8.373Z" fill="url(#paint8_linear_28_123)"/>
<path d="M21.6797 4.36918V8.373C22.2183 8.01197 23.0185 7.47582 24.0588 6.77753C25.8042 5.60578 27.5798 6.11383 29.8031 7.59256C30.2681 7.13424 30.6877 6.69321 30.9516 6.36244C31.6004 5.54525 31.6999 4.35189 31.4447 3.36823C31.2133 2.47753 30.6747 1.68844 29.9654 1.10905C27.1256 -1.21498 21.6797 0.22916 21.6797 4.36918Z" fill="url(#paint9_linear_28_123)"/>
<path d="M26.9375 21.2795C28.0275 20.5034 29.1543 19.7035 30.1751 18.9814C31.1419 18.2982 32.1281 17.6389 33.0798 16.9362C34.0919 16.1904 35.1474 15.5526 35.9671 14.5711C36.8214 13.5442 37.3296 12.2731 37.3296 10.9327C37.3296 10.0355 37.1177 9.1902 36.7457 8.45299C36.7457 8.45299 35.9044 6.18733 33.1425 5.06747C33.0581 5.68793 32.8245 6.55053 32.1909 7.3461C31.9292 7.67687 31.5399 8.09195 31.1095 8.52433C33.4734 10.3101 32.565 13.0448 31.3128 14.048C30.3806 14.7938 29.3857 15.5418 28.3952 16.2596L26.9375 21.2795Z" fill="url(#paint10_linear_28_123)"/>
<path d="M21.6797 20.806V25.0217C21.6797 25.0217 24.1929 23.2295 26.9375 21.2795L28.3952 16.2596C25.6766 18.2312 22.9839 19.978 21.6797 20.806Z" fill="url(#paint11_linear_28_123)"/>
<path d="M21.6797 14.2188V20.8082C22.9861 19.978 25.6766 18.2334 28.3952 16.2617C29.3857 15.544 30.3806 14.796 31.3128 14.0501C32.565 13.047 33.4755 10.3122 31.1095 8.5265C30.372 9.27019 29.509 10.0658 28.9445 10.576L29.5609 11.071C29.8702 11.3197 30.0302 11.6872 30.0302 12.0569C30.0302 12.3336 29.9394 12.6146 29.7534 12.846C29.3187 13.3864 28.5206 13.4729 27.9778 13.0384L26.068 11.5034C25.9902 11.4407 25.921 11.3694 25.8626 11.2937L21.6797 14.2188Z" fill="url(#paint12_linear_28_123)"/>
<path d="M21.6797 8.373V14.2188L25.8626 11.2959C25.6874 11.071 25.5987 10.7965 25.5987 10.5198C25.5987 10.243 25.6895 9.96415 25.8755 9.73067C26.3103 9.1902 27.1083 9.10372 27.6512 9.53826L27.6923 9.57069C28.1854 9.12534 29.0505 8.33625 29.801 7.59256C27.5776 6.11383 25.802 5.60578 24.0566 6.77753C23.0185 7.47582 22.2183 8.01197 21.6797 8.373Z" fill="url(#paint13_linear_28_123)"/>
<path d="M21.6797 33.5871C21.6797 33.5871 21.6797 38.0147 21.6797 38.019C21.6797 39.2837 22.1815 40.4468 22.9947 41.3289C23.4965 40.9592 24.1972 40.4468 25.0083 39.8501C24.9066 37.405 24.8093 33.3969 25.1121 31.0383C25.3803 28.9477 27.9778 27.1728 30.4823 25.5168C32.2514 24.3472 33.9752 23.2382 34.7992 22.1183C36.166 20.2612 35.5086 18.4755 34.9635 17.5416C34.5656 17.8507 34.1287 18.1642 33.6529 18.4755C32.4547 19.256 31.2695 20.0472 30.16 20.8233C28.2265 22.1723 26.5157 23.4738 25.3154 24.5915C24.2989 25.5406 23.384 26.9847 22.6789 28.6386C22.0128 30.1995 21.6797 31.8857 21.6797 33.5871Z" fill="url(#paint14_linear_28_123)"/>
<path d="M25.0083 39.8501C28.393 37.364 33.7567 33.4228 35.156 32.3635C37.2474 30.7832 35.8633 28.0073 35.8633 28.0073C33.5166 29.8125 30.8153 31.8792 28.9272 33.2866L29.3727 33.6909C29.6474 33.9395 29.7858 34.2833 29.7858 34.627C29.7858 34.9297 29.6777 35.2323 29.4614 35.4723C28.9964 35.9868 28.194 36.0279 27.6771 35.5609L26.1156 34.1471C25.8409 33.8984 25.7025 33.5547 25.7025 33.211C25.7025 32.9083 25.8106 32.6056 26.0269 32.3657C26.4638 31.8814 27.2013 31.8187 27.7161 32.1992C29.6517 30.7356 32.498 28.604 34.8554 26.7901C34.8554 26.7901 33.1317 24.0748 30.4801 25.519C27.9756 27.175 25.3781 28.9499 25.1099 31.0404C24.8093 33.3969 24.9066 37.405 25.0083 39.8501Z" fill="url(#paint15_linear_28_123)"/>
<path d="M30.4823 25.5146C33.1338 24.0705 34.8576 26.7858 34.8576 26.7858C35.9433 25.9492 36.9252 25.1795 37.667 24.5742C39.1139 23.3917 40.0201 21.5562 39.9617 19.6754C39.9055 17.8983 38.9279 16.1472 37.6562 14.9473C37.5654 15.0597 37.4637 15.1786 37.3534 15.3062C36.8041 15.931 36.0168 16.7222 34.9657 17.5394C35.5107 18.4734 36.1682 20.2591 34.8013 22.1161C33.9773 23.236 32.2514 24.345 30.4823 25.5146Z" fill="url(#paint16_linear_28_123)"/>
<path d="M22.9947 41.3289C23.7538 42.1504 24.7812 42.7298 25.9296 42.9265C29.0829 43.4626 30.9213 41.0435 32.2363 38.5638C33.1555 36.83 34.3666 35.8441 35.9801 34.8043C36.9295 34.1925 37.7362 33.3558 38.3029 32.3765C39.5486 30.2297 39.2394 27.7781 39.2394 25.4022C38.3548 26.0875 37.1631 27.0063 35.8654 28.0051C35.8654 28.0051 37.2496 30.7832 35.1582 32.3613C33.7567 33.4207 28.3952 37.364 25.0104 39.848C24.195 40.4468 23.4965 40.9592 22.9947 41.3289Z" fill="url(#paint17_linear_28_123)"/>
<g clip-path="url(#clip1_28_123)">
<path d="M109.361 30.7912C109.361 32.0782 108.448 33.1197 106.731 33.1197H104.93V34.8677H103.874V28.4627H106.731C108.445 28.4627 109.361 29.5064 109.361 30.7912ZM108.313 30.7912C108.313 30.0485 107.714 29.4381 106.809 29.4381H104.932V32.1444H106.809C107.712 32.1444 108.313 31.534 108.313 30.7912Z" fill="#150668"/>
<path d="M109.902 34.3042C109.902 33.9201 110.207 33.6085 110.608 33.6085C111.008 33.6085 111.314 33.9179 111.314 34.3042C111.314 34.6884 111.008 35 110.608 35C110.207 35 109.902 34.6905 109.902 34.3042Z" fill="#150668"/>
<path d="M120.819 31.6663C120.819 33.4313 119.561 34.8698 117.362 34.8698H114.751V28.4627H117.362C119.561 28.4627 120.819 29.9012 120.819 31.6663ZM119.743 31.6663C119.743 30.4455 118.981 29.4488 117.323 29.4488H115.818V33.8731H117.323C118.979 33.8731 119.743 32.8871 119.743 31.6663Z" fill="#150668"/>
<path d="M125.009 28.4627L127.763 34.8677H126.676L126.048 33.3929H122.83L122.202 34.8677H121.115L123.869 28.4627H125.009ZM125.646 32.473L124.436 29.6558L123.226 32.473H125.646Z" fill="#150668"/>
<path d="M133.458 28.4627V29.4488H131.133V34.8677H130.066V29.4488H127.752V28.4627H133.458Z" fill="#150668"/>
<path d="M140.725 31.6471C140.725 33.4975 139.257 35 137.315 35C135.372 35 133.906 33.4975 133.906 31.6471C133.906 29.7967 135.374 28.3027 137.315 28.3027C139.257 28.3027 140.725 29.7967 140.725 31.6471ZM139.658 31.6471C139.658 30.4177 138.686 29.2887 137.313 29.2887C135.941 29.2887 134.969 30.4156 134.969 31.6471C134.969 32.8785 135.941 34.0054 137.313 34.0054C138.686 34.0054 139.658 32.8764 139.658 31.6471Z" fill="#150668"/>
<path d="M147 32.9532C147 34.1463 146.048 34.9445 144.476 34.9445C143.21 34.9445 142.151 34.5219 141.465 34.0054L142.065 33.188C142.779 33.6575 143.636 33.9499 144.474 33.9499C145.541 33.9499 145.874 33.3673 145.874 32.9917C145.874 31.5553 141.625 32.7761 141.625 30.183C141.625 29.0475 142.682 28.3603 144.102 28.3603C144.673 28.3603 145.855 28.4457 146.827 29.15L146.359 29.9951C145.606 29.5256 144.768 29.3463 144.102 29.3463C143.292 29.3463 142.729 29.7028 142.729 30.2192C142.734 31.6471 147 30.501 147 32.9532Z" fill="#150668"/>
</g>
</g>
<defs>
<linearGradient id="paint0_linear_28_123" x1="12.6057" y1="2.68792" x2="27.3562" y2="35.336" gradientUnits="userSpaceOnUse">
<stop stop-color="#06E4FB"/>
<stop offset="0.3436" stop-color="#1287D7"/>
<stop offset="0.7346" stop-color="#114ACB"/>
<stop offset="1" stop-color="#1123A9"/>
</linearGradient>
<linearGradient id="paint1_linear_28_123" x1="6.12086" y1="10.5791" x2="29.8958" y2="35.5876" gradientUnits="userSpaceOnUse">
<stop stop-color="#06E4FB"/>
<stop offset="0.3436" stop-color="#1287D7"/>
<stop offset="0.7346" stop-color="#114ACB"/>
<stop offset="1" stop-color="#1123A9"/>
</linearGradient>
<linearGradient id="paint2_linear_28_123" x1="5.29914" y1="9.0164" x2="23.7221" y2="30.4295" gradientUnits="userSpaceOnUse">
<stop stop-color="#06E4FB"/>
<stop offset="0.3436" stop-color="#1287D7"/>
<stop offset="0.7346" stop-color="#114ACB"/>
<stop offset="1" stop-color="#1123A9"/>
</linearGradient>
<linearGradient id="paint3_linear_28_123" x1="0.295804" y1="21.5432" x2="21.6277" y2="37.0707" gradientUnits="userSpaceOnUse">
<stop stop-color="#06E4FB"/>
<stop offset="0.3436" stop-color="#1287D7"/>
<stop offset="0.7346" stop-color="#114ACB"/>
<stop offset="1" stop-color="#1123A9"/>
</linearGradient>
<linearGradient id="paint4_linear_28_123" x1="-2.03377" y1="14.9883" x2="14.6808" y2="38.2352" gradientUnits="userSpaceOnUse">
<stop stop-color="#06E4FB"/>
<stop offset="0.3436" stop-color="#1287D7"/>
<stop offset="0.7346" stop-color="#114ACB"/>
<stop offset="1" stop-color="#1123A9"/>
</linearGradient>
<linearGradient id="paint5_linear_28_123" x1="-3.6125" y1="14.6027" x2="18.8136" y2="34.1827" gradientUnits="userSpaceOnUse">
<stop stop-color="#06E4FB"/>
<stop offset="0.3436" stop-color="#1287D7"/>
<stop offset="0.7346" stop-color="#114ACB"/>
<stop offset="1" stop-color="#1123A9"/>
</linearGradient>
<linearGradient id="paint6_linear_28_123" x1="-9.16513" y1="20.0348" x2="20.5999" y2="47.2627" gradientUnits="userSpaceOnUse">
<stop stop-color="#06E4FB"/>
<stop offset="0.3436" stop-color="#1287D7"/>
<stop offset="0.7346" stop-color="#114ACB"/>
<stop offset="1" stop-color="#1123A9"/>
</linearGradient>
<linearGradient id="paint7_linear_28_123" x1="-12.9074" y1="-9.64601" x2="32.3521" y2="31.1961" gradientUnits="userSpaceOnUse">
<stop stop-color="#06E4FB"/>
<stop offset="0.3436" stop-color="#1287D7"/>
<stop offset="0.7346" stop-color="#114ACB"/>
<stop offset="1" stop-color="#1123A9"/>
</linearGradient>
<linearGradient id="paint8_linear_28_123" x1="7.58642" y1="1.28338" x2="31.2854" y2="25.2215" gradientUnits="userSpaceOnUse">
<stop stop-color="#06E4FB"/>
<stop offset="0.3436" stop-color="#1287D7"/>
<stop offset="0.7346" stop-color="#114ACB"/>
<stop offset="1" stop-color="#1123A9"/>
</linearGradient>
<linearGradient id="paint9_linear_28_123" x1="54.5504" y1="-14.4306" x2="-40.5665" y2="49.3638" gradientUnits="userSpaceOnUse">
<stop stop-color="#06E4FB"/>
<stop offset="0.3436" stop-color="#1287D7"/>
<stop offset="0.7346" stop-color="#114ACB"/>
<stop offset="1" stop-color="#1123A9"/>
</linearGradient>
<linearGradient id="paint10_linear_28_123" x1="33.1208" y1="11.0139" x2="10.7953" y2="27.6375" gradientUnits="userSpaceOnUse">
<stop stop-color="#466CF3"/>
<stop offset="1" stop-color="#3337F0"/>
</linearGradient>
<linearGradient id="paint11_linear_28_123" x1="42.1387" y1="8.07365" x2="21.546" y2="23.0656" gradientUnits="userSpaceOnUse">
<stop stop-color="#466CF3"/>
<stop offset="1" stop-color="#3337F0"/>
</linearGradient>
<linearGradient id="paint12_linear_28_123" x1="65.8569" y1="-13.2374" x2="21.2811" y2="17.8944" gradientUnits="userSpaceOnUse">
<stop stop-color="#06E4FB"/>
<stop offset="0.3436" stop-color="#1287D7"/>
<stop offset="0.3976" stop-color="#127ED5"/>
<stop offset="0.7346" stop-color="#114ACB"/>
<stop offset="1" stop-color="#1123A9"/>
</linearGradient>
<linearGradient id="paint13_linear_28_123" x1="44.2422" y1="-10.8129" x2="6.62984" y2="27.4269" gradientUnits="userSpaceOnUse">
<stop stop-color="#06E4FB"/>
<stop offset="0.3436" stop-color="#1287D7"/>
<stop offset="0.7346" stop-color="#114ACB"/>
<stop offset="1" stop-color="#1123A9"/>
</linearGradient>
<linearGradient id="paint14_linear_28_123" x1="38.6497" y1="22.2248" x2="19.9939" y2="35.8909" gradientUnits="userSpaceOnUse">
<stop offset="0.0032489" stop-color="#1300BF"/>
<stop offset="0.4983" stop-color="#07008E"/>
<stop offset="1" stop-color="#060035"/>
</linearGradient>
<linearGradient id="paint15_linear_28_123" x1="42.8618" y1="20.9319" x2="26.1435" y2="34.0878" gradientUnits="userSpaceOnUse">
<stop offset="0.0032489" stop-color="#1300BF"/>
<stop offset="0.4574" stop-color="#07008E"/>
<stop offset="1" stop-color="#060035"/>
</linearGradient>
<linearGradient id="paint16_linear_28_123" x1="60.7207" y1="3.81087" x2="24.326" y2="29.2059" gradientUnits="userSpaceOnUse">
<stop offset="0.0032489" stop-color="#1300BF"/>
<stop offset="0.5532" stop-color="#07008E"/>
<stop offset="0.917" stop-color="#060035"/>
</linearGradient>
<linearGradient id="paint17_linear_28_123" x1="60.824" y1="13.7004" x2="22.4935" y2="42.766" gradientUnits="userSpaceOnUse">
<stop offset="0.0032489" stop-color="#1300BF"/>
<stop offset="0.4983" stop-color="#07008E"/>
<stop offset="1" stop-color="#060035"/>
</linearGradient>
<clipPath id="clip0_28_123">
<rect width="147" height="43" fill="white"/>
</clipPath>
<clipPath id="clip1_28_123">
<rect width="97" height="22" fill="white" transform="translate(50 13)"/>
</clipPath>
</defs>
</svg>
